<?xml version="1.0" standalone="no"?><!DOCTYPE svg PUBLIC "-//W3C//DTD SVG 1.1//EN" "http://www.w3.org/Graphics/SVG/1.1/DTD/svg11.dtd"><svg t="1772157970623" class="icon" viewBox="0 0 1024 1024" version="1.1" xmlns="http://www.w3.org/2000/svg" p-id="14093" xmlns:xlink="http://www.w3.org/1999/xlink" width="200" height="200"><path d="M497.568 564.096c-8.32 8.32-31.296 1.92-30.528-11.872l0.16-197.76c2.88-15.936 35.264-12.192 34.016 5.536-4.224 61.312 5.12 128.832-0.032 189.376-0.384 4.352-0.48 11.584-3.616 14.72zM560.32 318.976h-31.04v229.216h31.04V318.976zM594.88 305.76c5.056-5.024 22.336-5.728 26.176 2.144l1.408 190.56c-2.88 15.552-31.36 11.2-31.2-5.504 3.84-55.84-4.64-117.312 0-172.416 0.384-4.384 0.48-11.648 3.616-14.72v-0.064zM421.312 379.04c8.672-0.672 17.92 5.664 17.728 14.816-4.704 52.864 5.824 115.072-0.064 166.72-2.624 22.88-28.896 20.96-31.232 2.912l0.096-175.168c0.096-5.888 8.32-8.864 13.44-9.28zM376.832 403.68h-31.04v192.416h31.04v-192.416zM726.112 288.608c12.8-2.24 19.2 6.272 20.544 17.856 4.96 42.72-3.712 94.56-0.128 138.304-2.656 14.08-31.488 16.32-33.92-2.624-5.504-42.72 4.32-97.184 0.192-141.216 0.64-5.952 7.872-11.36 13.312-12.32zM653.44 296.64c2.784-4.448 29.056-9.312 31.2 12.512 4.448 44.928-3.136 97.792-0.704 143.552-1.6 11.2-30.496 9.248-30.496 3.392V296.64zM225.056 336.832c6.176-6.144 22.784-4.928 27.744 3.392 9.728 16.256-1.792 105.152 2.56 129.92-3.2 17.28-29.664 17.696-33.728 0 2.656-19.52-5.216-124.736 3.392-133.312h0.032zM805.856 299.456v134.08c0 8.576-31.04 8.576-31.04 0V300.864c0-7.872 25.568-6.592 31.04-1.408zM864.448 311.456c3.072 2.624 3.36 10.56 3.648 14.72 1.312 18.368 2.816 71.36-0.192 87.52-2.72 14.464-30.976 15.456-33.536-2.912-2.24-16.224-2.592-71.392-0.096-87.168 2.336-14.528 20.224-20.8 30.176-12.192zM286.528 430.72c3.136-11.2 31.04-8.544 31.04 2.816v95.968c0 8.576-31.04 8.576-31.04 0v-98.816zM774.816 467.392c2.88-9.408 31.04-8.992 31.04 0v84.672c0 10.432-31.04 7.584-31.04 0 0-16.704-3.328-73.664 0-84.672zM743.776 474.432v93.152c0 1.6-24.736 6.848-29.184-3.456-3.904-9.056-3.648-85.312 2.784-89.92 7.552-5.504 18.176-0.48 26.4 0.224zM653.44 567.584v-77.6c0-10.432 31.04-7.584 31.04 0v73.376c0 8.8-24.64 8.096-31.04 4.224zM836.928 450.464c2.144-7.04 28.192-5.44 28.192 0v79.04c0 7.296-28.192 7.296-28.192 0 0-15.488-3.136-69.024 0-79.04zM927.264 415.168c-2.88 4.608-31.04 3.008-31.04-4.224V351.68c0-9.472 31.04-9.472 31.04 0 0 9.44 1.696 60.8 0 63.488zM159.488 348.832c2.88-8.864 31.04-7.744 31.04 0v45.184c0 9.44-31.04 9.44-31.04 0 0-9.472-1.952-38.976 0-45.184zM927.232 480.096c-1.728 2.784-25.376 5.984-29.632-2.784-2.976-6.08-2.656-36.96 2.08-41.664 6.592-6.592 27.552-1.952 27.552 3.52 0 6.432 1.12 39.232 0 40.96v-0.032zM622.016 564.384c-2.4 3.904-23.264 5.344-28.096-0.736-4.448-5.6-4.448-28.416 1.408-32.992 4.672-3.68 22.624-4.48 25.856 0.064 1.856 2.656 2.208 31.52 0.832 33.664zM108 336.672c7.616-1.504 18.752 0.16 20.448 9.344 2.752 15.04 1.92 28.896-15.808 29.504-21.824 0.768-20.928-35.648-4.64-38.88v0.032zM287.136 325.472c4.48-6.336 28.736-6.432 30.624 9.12 3.52 29.504-31.264 26.944-33.12 5.376-0.192-2.432 1.44-13.056 2.464-14.528v0.032zM702.176 661.44v73.376c-32.32-0.896-60.96 7.36-56.64-35.488 2.272-22.208 21.632-21.376 39.68-18.176v-19.744h16.96z m-16.896 59.296c-1.376-11.744 5.856-27.616-9.888-28.48-9.856-0.544-11.712 0.704-12.864 10.016-2.56 20.32 4.928 19.52 22.72 18.464zM284.416 661.44v14.08h-48v14.144h33.92v14.144c-31.936-1.6-37.184-3.52-33.888 31.04h-16.96V661.44h64.96zM400.16 661.44h16.96v19.744c7.68-6.496 39.488 2.752 39.488 9.888v43.744h-16.96c-1.728-8.896 4.384-39.04-4.608-41.92-26.112-8.48-16.192 25.6-17.92 41.92h-16.96V661.44zM538.08 661.856c3.2 1.984 18.88 63.712 20.16 72.96-3.968-0.704-14.72 1.376-16.704-0.256s-10.272-47.744-12.992-47.744c-11.008 17.376-4.16 54.944-32.448 48 3.264-9.216 19.712-70.944 22.944-72.96 1.76-1.12 17.216-1.12 18.976 0h0.064zM380.416 678.4c3.712 22.784-21.248 10.368-33.92 15.552 0.224 11.2 19.936 5.792 26.816 7.072 12.384 2.304 16.224 22.08 6.272 30.144-11.136 9.024-63.552 4.096-44.384-9.088 5.12-3.552 22.144-0.352 29.76-1.312 3.904-0.512 8.096-1.504 4.16-5.632-6.208-6.464-36.8 4.224-39.584-15.712-3.776-26.88 34.24-20.608 50.88-20.992V678.4zM575.136 678.368c33.728-6.912 2.848 41.184 26.784 42.56 21.92 1.28 9.792-27.392 12.704-42.56h16.96v56.48c-9.632 1.44-56.448 1.024-56.448-12.704V678.368zM753.728 728.448c-8.32-7.712-9.376-36.064 0.096-43.616 8.736-7.04 33.984-7.488 43.136-1.024 8 5.664 8.416 26.72 6.784 35.392-3.296 17.472-39.104 19.328-50.016 9.248z m13.76-35.52c-3.008 1.856-9.536 27.168 6.656 28.032 15.392 0.832 17.024-17.952 11.488-25.824-2.368-3.328-15.296-4-18.144-2.24zM733.216 678.368h-16.96v56.448h16.96v-56.448zM315.52 734.816h-16.96v-56.448c4.032-0.736 16.96-0.096 16.96 4.224v52.224zM315.52 661.44h-16.96v14.112h16.96v-14.112zM733.248 661.44h-16.96v14.112h16.96v-14.112z" fill="#808182" p-id="14094"></path></svg>