<svg id="图层_1" data-name="图层 1" xmlns="http://www.w3.org/2000/svg" viewBox="0 0 2874.67 1026.37"><defs><style>.cls-1,.cls-2{fill:#bd192f;}.cls-1{fill-rule:evenodd;}</style></defs><path class="cls-1" d="M1530.84,143.4H1487c-242.22,0-440.39,196.53-441.7,438.82V626c0,242.12,196.74,439.92,438.79,441.49h46.45c183.51-1.25,344.18-113,409.42-283.79v-.48H1712.74c-45.6,53.74-111.27,84.5-182.2,85.34l-46.16-.32C1352,866.88,1244.78,758.41,1244.78,626V582.22C1245.67,449.9,1354.53,342.7,1487,342.7h43.54c101.7,1.05,191.77,67.24,225,162.32H1349.05V703.51H1962.5l1.61-9.62a473.39,473.39,0,0,0,5.26-67.88V582.22C1968.49,341.81,1770.86,145.28,1530.84,143.4Z" transform="translate(-18.67 -41.94)"/><path class="cls-1" d="M734.12,605.58c0,139.92-114.3,254.24-254,254.24-140.64,0-253.9-114.32-253.9-254.29S339.5,351.84,480.14,351.84A254.26,254.26,0,0,1,646.71,414l7.7,6.81v-242c-55.29-22.85-113.79-34-174.27-34-254.27,0-461.47,206.72-461.47,460.77,0,254.46,207.2,461.29,461.47,461.29,254,0,461-206.86,461-461.29V42h-207Z" transform="translate(-18.67 -41.94)"/><path class="cls-1" d="M2520.54,863.3l-3.67-.45h.64c-132.52-2.58-240.15-108.52-240.15-241.39l.07-579.52H2071.84V621.46c0,245.09,199.65,446,445,446.84h68.57V862.85h-67.93C2518.52,862.85,2519.61,863.3,2520.54,863.3Z" transform="translate(-18.67 -41.94)"/><rect class="cls-2" x="2669.24" y="287.15" width="205.43" height="739.14"/><rect class="cls-2" x="2669.24" width="205.43" height="205.27"/></svg>