<?xml version="1.0" standalone="no"?><!DOCTYPE svg PUBLIC "-//W3C//DTD SVG 1.1//EN" "http://www.w3.org/Graphics/SVG/1.1/DTD/svg11.dtd"><svg t="1770969059369" class="icon" viewBox="0 0 1024 1024" version="1.1" xmlns="http://www.w3.org/2000/svg" p-id="9255" xmlns:xlink="http://www.w3.org/1999/xlink" width="200" height="200"><path d="M0 750.933333V273.066667a273.066667 273.066667 0 0 1 273.066667-273.066667h477.866666a273.066667 273.066667 0 0 1 273.066667 273.066667v477.866666a273.066667 273.066667 0 0 1-273.066667 273.066667H273.066667a273.066667 273.066667 0 0 1-273.066667-273.066667z" fill="#FFFFFF" p-id="9256"></path><path d="M0 750.933333V273.066667a273.066667 273.066667 0 0 1 273.066667-273.066667h477.866666a273.066667 273.066667 0 0 1 273.066667 273.066667v477.866666a273.066667 273.066667 0 0 1-273.066667 273.066667H273.066667a273.066667 273.066667 0 0 1-273.066667-273.066667z m34.133333 0q0 98.986667 69.973334 168.96Q174.08 989.866667 273.066667 989.866667h477.866666q98.986667 0 168.96-69.973334Q989.866667 849.92 989.866667 750.933333V273.066667q0-98.986667-69.973334-168.96Q849.92 34.133333 750.933333 34.133333H273.066667Q174.08 34.133333 104.106667 104.106667 34.133333 174.08 34.133333 273.066667v477.866666z" fill="#F0F0F0" p-id="9257"></path><path d="M699.733333 276.616533h81.3056v271.428267H699.733333V276.616533z m95.8464-87.552a55.227733 55.227733 0 1 1-110.421333 0 55.227733 55.227733 0 0 1 110.421333 0z" fill="#7733F8" p-id="9258"></path><path d="M300.475733 548.078933H187.733333l278.3232-395.912533h125.917867v189.781333h45.226667v89.531734h-45.226667v116.599466h-89.326933v-116.599466h-94.890667l67.310933-89.531734h27.579734V273.5104l-202.171734 274.568533zM187.733333 605.0816h98.986667a97.553067 97.553067 0 0 1 0 195.140267h-27.8528v-55.569067h22.528a39.765333 39.765333 0 0 0 0-79.496533H241.7664v224.802133H187.733333v-284.8768z m239.991467 0h98.986667a97.553067 97.553067 0 0 1 0 195.140267h-27.8528v-55.569067h22.528a39.765333 39.765333 0 1 0 0-79.496533h-39.6288v224.802133h-54.033067v-284.8768zM836.266667 665.6v-53.998933h-183.159467v53.998933H836.266667z m-68.846934 18.602667H713.386667v205.789866h54.033066v-205.789866z" fill="#282339" p-id="9259"></path></svg>