<?xml version="1.0" standalone="no"?><!DOCTYPE svg PUBLIC "-//W3C//DTD SVG 1.1//EN" "http://www.w3.org/Graphics/SVG/1.1/DTD/svg11.dtd"><svg t="1770968957891" class="icon" viewBox="0 0 1024 1024" version="1.1" xmlns="http://www.w3.org/2000/svg" p-id="4908" xmlns:xlink="http://www.w3.org/1999/xlink" width="200" height="200"><path d="M1003.52 532.48c0 271.48288-220.03712 491.52-491.52 491.52S20.48 803.96288 20.48 532.48 240.51712 40.96 512 40.96s491.52 220.03712 491.52 491.52z" fill="#F23430" p-id="4909"></path><path d="M773.85728 368.64h-192.3072a28.50816 28.50816 0 0 0-25.27232 16.91648l-80.97792 169.24672-47.22688 101.5808c-3.35872 8.43776-8.43776 0-8.43776 0l-101.1712-213.27872s-3.39968-8.47872 5.03808-8.47872h80.97792a14.5408 14.5408 0 0 1 13.5168 8.47872c15.1552 30.43328 28.672 54.14912 38.78912 74.46528 0 1.67936 37.0688-76.1856 37.0688-77.824-6.71744-15.23712-16.83456-33.87392-26.95168-54.19008-3.39968-10.15808-13.5168-15.23712-25.31328-16.91648H250.96192c-20.23424 0-30.3104 18.6368-23.59296 33.87392l168.63232 358.8096c5.07904 10.15808 16.87552 15.23712 30.39232 15.23712a33.1776 33.1776 0 0 0 28.672-15.23712l57.344-121.856 92.73344-192.9216s3.39968-8.51968 13.5168-8.51968h79.29856c10.11712 0 5.03808 8.47872 5.03808 8.47872l-99.5328 211.59936s-3.35872 8.47872-8.43776 0l-28.672-60.94848-37.10976 77.824 40.50944 86.34368c5.03808 10.15808 16.83456 16.91648 32.03072 16.91648 11.4688 0 21.9136-6.5536 26.95168-16.91648l166.99392-355.40992c8.43776-20.31616-1.6384-37.2736-21.9136-37.2736z" fill="#FFFFFF" p-id="4910"></path></svg>